# xmcd
#
# Track frame offsets: 
#        150
#        6211
#        23622
#        40323
#        59028
#        79655
#        95841
#        115798
#        141698
#        161987
#        186217
#        209339
#        240904
#        269772
#
# Disc length: 4186 seconds
#
# Revision: 0
# Processed by: cddbd v1.4PL0 Copyright (c) Steve Scherf et al.
# Submitted via: ExactAudioCopy v0.90b2
#
DISCID=cd10580e
DTITLE=Limp Bizkit - Chokolate Starfish And The Hot Dog Flavored Water
DYEAR=2000
DGENRE=Polka
TTITLE0=Intro
TTITLE1=Hot Dog
TTITLE2=My Generation
TTITLE3=Full Nelson
TTITLE4=My way
TTITLE5=Rollin' (Air Raid Vehicle)
TTITLE6=Livin' It Up
TTITLE7=The One
TTITLE8=Getcha Groove On
TTITLE9=Take A Look Around
TTITLE10=It'll Be OK
TTITLE11=Boiler
TTITLE12=Hold On
TTITLE13=Outro
EXTD=
EXTT0=
EXTT1=
EXTT2=
EXTT3=
EXTT4=
EXTT5=
EXTT6=
EXTT7=
EXTT8=
EXTT9=
EXTT10=
EXTT11=
EXTT12=
EXTT13=
PLAYORDER=
